<mxfile host="app.diagrams.net" agent="Mozilla/5.0 (Windows NT 10.0; Win64; x64) AppleWebKit/537.36 (KHTML, like Gecko) Chrome/139.0.0.0 Safari/537.36" version="28.2.5">
  <diagram name="Page-1" id="7xrdENI-BjokxRbEJT8y">
    <mxGraphModel dx="1426" dy="777" grid="1" gridSize="10" guides="1" tooltips="1" connect="1" arrows="1" fold="1" page="0" pageScale="1" pageWidth="827" pageHeight="1169" math="0" shadow="0">
      <root>
        <mxCell id="0" />
        <mxCell id="1" parent="0" />
        <mxCell id="lceH0wNusuQjqGATGVue-2" value="" style="rounded=0;whiteSpace=wrap;html=1;fillColor=none;" vertex="1" parent="1">
          <mxGeometry x="140" y="150" width="700" height="480" as="geometry" />
        </mxCell>
        <mxCell id="lceH0wNusuQjqGATGVue-6" value="" style="whiteSpace=wrap;html=1;fillColor=none;" vertex="1" parent="1">
          <mxGeometry x="210" y="220" width="590" height="360" as="geometry" />
        </mxCell>
        <mxCell id="lceH0wNusuQjqGATGVue-16" value="" style="rounded=0;whiteSpace=wrap;html=1;fillColor=none;" vertex="1" parent="1">
          <mxGeometry x="250" y="250" width="330" height="200" as="geometry" />
        </mxCell>
        <mxCell id="lceH0wNusuQjqGATGVue-1" value="MAR" style="image;sketch=0;aspect=fixed;html=1;points=[];align=center;fontSize=12;image=img/lib/mscae/ResourceGroup.svg;" vertex="1" parent="1">
          <mxGeometry x="110" y="130" width="50" height="40" as="geometry" />
        </mxCell>
        <mxCell id="lceH0wNusuQjqGATGVue-4" value="MAR Databricks" style="image;sketch=0;aspect=fixed;html=1;points=[];align=center;fontSize=12;image=img/lib/mscae/Databricks.svg;" vertex="1" parent="1">
          <mxGeometry x="170" y="180" width="68" height="65.28" as="geometry" />
        </mxCell>
        <mxCell id="lceH0wNusuQjqGATGVue-17" style="edgeStyle=orthogonalEdgeStyle;rounded=0;orthogonalLoop=1;jettySize=auto;html=1;" edge="1" parent="1" source="lceH0wNusuQjqGATGVue-7" target="lceH0wNusuQjqGATGVue-15">
          <mxGeometry relative="1" as="geometry" />
        </mxCell>
        <mxCell id="lceH0wNusuQjqGATGVue-7" value="Market_Dominance_at_Open_Close" style="sketch=0;outlineConnect=0;fontColor=#232F3E;gradientColor=none;fillColor=#01A88D;strokeColor=none;dashed=0;verticalLabelPosition=bottom;verticalAlign=top;align=left;html=1;fontSize=12;fontStyle=0;aspect=fixed;pointerEvents=1;shape=mxgraph.aws4.sagemaker_notebook;" vertex="1" parent="1">
          <mxGeometry x="260" y="260" width="52.31" height="60" as="geometry" />
        </mxCell>
        <mxCell id="lceH0wNusuQjqGATGVue-18" style="edgeStyle=orthogonalEdgeStyle;rounded=0;orthogonalLoop=1;jettySize=auto;html=1;" edge="1" parent="1" source="lceH0wNusuQjqGATGVue-8" target="lceH0wNusuQjqGATGVue-15">
          <mxGeometry relative="1" as="geometry" />
        </mxCell>
        <mxCell id="lceH0wNusuQjqGATGVue-8" value="Ramping" style="sketch=0;outlineConnect=0;fontColor=#232F3E;gradientColor=none;fillColor=#01A88D;strokeColor=none;dashed=0;verticalLabelPosition=bottom;verticalAlign=top;align=left;html=1;fontSize=12;fontStyle=0;aspect=fixed;pointerEvents=1;shape=mxgraph.aws4.sagemaker_notebook;" vertex="1" parent="1">
          <mxGeometry x="260" y="355" width="52.31" height="60" as="geometry" />
        </mxCell>
        <mxCell id="lceH0wNusuQjqGATGVue-9" value="" style="sketch=0;outlineConnect=0;fontColor=#232F3E;gradientColor=none;fillColor=#01A88D;strokeColor=none;dashed=0;verticalLabelPosition=bottom;verticalAlign=top;align=left;html=1;fontSize=12;fontStyle=0;aspect=fixed;pointerEvents=1;shape=mxgraph.aws4.sagemaker_notebook;" vertex="1" parent="1">
          <mxGeometry x="260" y="463" width="52.31" height="60" as="geometry" />
        </mxCell>
        <mxCell id="lceH0wNusuQjqGATGVue-10" value="" style="sketch=0;outlineConnect=0;fontColor=#232F3E;gradientColor=none;fillColor=#01A88D;strokeColor=none;dashed=0;verticalLabelPosition=bottom;verticalAlign=top;align=left;html=1;fontSize=12;fontStyle=0;aspect=fixed;pointerEvents=1;shape=mxgraph.aws4.sagemaker_notebook;" vertex="1" parent="1">
          <mxGeometry x="280" y="483" width="52.31" height="60" as="geometry" />
        </mxCell>
        <mxCell id="lceH0wNusuQjqGATGVue-11" value="" style="sketch=0;outlineConnect=0;fontColor=#232F3E;gradientColor=none;fillColor=#01A88D;strokeColor=none;dashed=0;verticalLabelPosition=bottom;verticalAlign=top;align=left;html=1;fontSize=12;fontStyle=0;aspect=fixed;pointerEvents=1;shape=mxgraph.aws4.sagemaker_notebook;" vertex="1" parent="1">
          <mxGeometry x="300" y="503" width="50" height="57.35" as="geometry" />
        </mxCell>
        <mxCell id="lceH0wNusuQjqGATGVue-21" style="edgeStyle=orthogonalEdgeStyle;rounded=0;orthogonalLoop=1;jettySize=auto;html=1;" edge="1" parent="1" source="lceH0wNusuQjqGATGVue-12" target="lceH0wNusuQjqGATGVue-20">
          <mxGeometry relative="1" as="geometry" />
        </mxCell>
        <mxCell id="lceH0wNusuQjqGATGVue-12" value="ML Model" style="html=1;verticalLabelPosition=bottom;align=center;labelBackgroundColor=#ffffff;verticalAlign=top;strokeWidth=2;strokeColor=#0080F0;shadow=0;dashed=0;shape=mxgraph.ios7.icons.calculator;aspect=fixed;" vertex="1" parent="1">
          <mxGeometry x="610" y="352.5" width="50" height="62.5" as="geometry" />
        </mxCell>
        <mxCell id="lceH0wNusuQjqGATGVue-15" value="Parameters" style="shape=image;verticalLabelPosition=bottom;labelBackgroundColor=default;verticalAlign=top;aspect=fixed;imageAspect=0;image=data:image/png,iVBORw0KGgoAAAANSUhEUgAAAOgAAADtCAYAAAC1ZDnLAAAAAXNSR0IArs4c6QAAAARnQU1BAACxjwv8YQUAAAAJcEhZcwAADsMAAA7DAcdvqGQAAB3KSURBVHhe7Z0HeBVV2sdf6WkEgdA7hPrRRIpKi6igKKtSNYofKCKoK0UFdUWxrCKgrKDgui7uutgoK1KkiyA1dJZeEgIIUpPQi95v/seTZ/PhJczc3Jl7cvP/Pc+IcwZm5tw5/1Pec877Xnf69FmfEEKMJJ/+kxBiIBQoIQZDgRJiMBQoIQZDgRJiMBQoIQZDgRJiMBQoIQZDgRJiMBQoIQZDgRJiMBQoIQZDgRJiMMbtZrl8+bIcOXJE0tPT5cyZM3Lx4gXx+bjhhrjHddddJ4UKFZaoqCiJjY2VUqVKSYECBfTV0BISgUJwEOLFixfl2LFjsnLlClmyZIls2rRRdu3aLadPn9J/kxDviY6OkZo146VBgwbSunUbuemmm6V48eKWiAsp4ULQXuGpQH/55RdLfKdl//79liB/kG+++UbWrl0jFy5c0H+DEPMoXLiwNG3aTO69915p1aq1VKhQwRJxtOTPn1//DffwRKC//vqr6rJu3bpFpk+fLtOmTZXDhw/rq4TkDtByli1bVjp37iKdOnWSOnXqStGiRSVfPvdMOa4L9Ny5c7J582aZM+c7mTx5sqSkJHNMSXI1EGq1atWlW7du0qHDnVKvXj0pUqSIvhpcXBXooUOHZObMGfLll1/ImjVrVBeXkHAB49FmzZpLjx4PyD333CNxcXH6SvBwTaDr16+XiRM/kalTp6ruLSHhCgxIXbp0lV69ekv9+vV1anBwRaDz5s2TMWPek2XLfmSrSfIEaE1h8R08eLC0adNWp+acoAoUY0sYgN57713ZsGGDTiUk79C0aVNLpM/J3XffrVNyRlDNT99+O11GjnxHNm3apFMIyVusW7dORox4S+bOnatTckbQBLp06RLVrd22bZuaViEkL4IhHWYtRo8eJUlJSTo1cIIi0N27dylxwjDEMSfJ62CVXFLSamuoN1pSU1N1amDkWKCnTmXIhAkTZPHixerFCCEily5dkoULF8onn/xNrQUIlBwJFK3llClT5d//nsbleoRcATZ7TJkyWWbM+DbgYV/AVlxYbDdu3CivvDLMqikW6NScgRUaERER6sDKjIIFC1pp+TxdnOyUo0ePql5EdmCXRIkSJaRAgYI6JTy4fPmSHD9+XBXE7IiJKerKJH6wQFn2+X5Vrd758+fl7Nmz6s9grXjDIoZXXx0utWrV1in2CVigGRkZ8sEH42TUqJE5bj0xh4Q1juXLV5CGDRuqo3r16lKmTBmJjIxyda1jThk6dIiqJbP7mAkJt8rLLw+TypUr65TwYN++ffL666/J998v0im/B5UrJvHffnuETjEPtG5nzpyWn3/+Wfbs2aOmCNH4HDx4QK2Gy6ldJSoqWv70pz9J796PqsraCQEJFBlatWqlDB48KMdTKhUrVlTLpVDLtG2bICVLltRXcgf9+/eTzz77Z7YC7dChg4wcOUqqVq2mU8KD5OS98txzz8qcOXN0yu+BQB9+uKd8+OF4nZI7QM9o0aKFVvd0hqxZkyQHDhzQVwIDW9beeWekNGrUyFGPMKCm6dSpU/LDDz/Ili1bdIpz0H3FSw8Z8oKMHTtO1bK5TZwkfEGXvHv3HjJu3AdWJTREmjdvrnp6gbJ+/TpZsWK51X3OfjhwJQEJ9NChn2TWrJkBN/3YX3fnnXfJa6+9JomJiWrLDiEmUqxYMasH8LC88sqrcvvtt6uGJRAwpp09e7bqRjvBsUDhBQEtJxYkBAJqoTvuuMPqHj+rNsEGmmFCvAKeFNDbe/bZ5yQhISFgm8jatWutMe5eRw2b4yfBYrdo0SJVIwQCRNmvX3/lTiInXQZCvAQNSaNGjaVv335qHBkIsPZjxZ2Tbq5jgcJlydKlS/WZM+AqAnvnYBRiy0lyGxiatWrVSrp27RbwtBF2eJ0+7ZJAYb3dty9FUlP36RT7oFtw8823qFX+bu0+J8RtIiMjpVOnPyijUSBgne7Jkydtz7E6Eij6zuhHB7KkD61nu3btlEtDQnIzmBrEns9AyjIWQcB7pd1xqGOB7tmzW585Az5c4BHN5FVBhNgBvcFbbmkZ8Lw2FkPYXfrnuIsLK5RT0HevXr2aVKpUSaeED8FaDkZyF3Xq1FEtaSAW3eTkZHdaUKxX/Omnn/SZfTDPWbt2HX0WXrBHkDeBkTM+Pl75x3UK/EK70oKitTh/3vnWGQyssa6WkHCibNlyqmw7JS3tpPVfF4xEIJD5z3z58ktEhPOM5AbYxc27XH99MTV8cwq8XLpixcVNsSUnENgVJOFGkSIRqvFxCiy5rgg0J7ClIeFGoI2O3fEn8EyghBDnUKCEGAwFSojBUKCEGAwFSojBUKCEGAwFSojBUKCEGAwFSojBUKCEGAwFSojBOPIsD69kderUlrS0NJ1ijypVqsjw4a9Ju3a36ZTwAd71v/76q2zXGiPfyD9+h3AiJSXlmrF5sF4VDqBHjRqtU8IH5Bv5x+/ghOuvv162bt2mYtZcC08EitgUcLMZjntC4TH8Wh8I+Ua8GcSZCSfgPhIxTA4fPqxT/IOKqXHjG/RZ+IB8I/QJ4ro4Ac6wt23bbo5ACSH/xYlAOQYlxGAoUEIMhgIlxGAoUEIMhgIlxGAoUEIMhgIlxGC4UCGHcKECFyrk+oUKXOrHpX5c6vdfjFvqhyhQI0eOkg4dOuiU8KFfvyfkX//6LFuBIt/If6DRsEwlOXmvPPfcszJnzhyd8nsg0Icf7ikffjhep4QPyDfyj9/BCVxJREiYQIESYjAUKCEGQ4ESYjAUKCEGQ4ESYjAUKCEGQ4ESYjAUKCEGQ4ESYjAUKCEGQ4ESYjAUKCEGQ4ESYjAUKCEGQ4ESYjAUKCEGQ4ESYjAUKCEGQ4ESYjAUKCEGQ4ESYjAUKCEGY6Rf3PPnz8uuXbtky5b/qGf98ssv+op7FC5cRMqWLSstWrSQEiVK6NRr079/P/nss38G1S9uRkaG8li/d2+ynDt3Ntt7BwP4roXX+2rVqkqjRo2laNFr+2sFbvnFPXr0qKxatUoOHz4kFy5c0KnukT9/fuWrtl69/5GaNWtaZaGwvpI9gfrFzdWOq9PT0+Uf//hUpk+frj7QuXPn5Ndff9VX3aNgwYJWwYyVWrVqyuDBz0mTJk30lewJtkC3b98mn3zyiSxb9qMcP35cLl686IlACxUqJCVLlpSWLVvJo48+ahXUWvrq1XFDoBDmmDHvyo4dO62KKl0uX76sr7hHvnz5JCIiQsqUKStdunSRxMSHbFVSXghUIFC7x6FDh31WTYPS4uiwCqZvypRpfu+Z9Th27IRv9Oh3fXFxcX7v48Vh1aa+hg0b+rZs2eb3Ha88evZ8xGcVQr/3yjwsgfo2b/6P33+f9di6dbuvV69evujoGL/38eKwCo3vscf6+Hbu3O33HbMeyBPy5u8+mQd+G/xG/v79lceGDRt99erVU9/A3728OEqXLu0bO/YD3/HjJ/2+Y9YDZRpl2999sjugIWjJ3z2vPIwag6Jl/stfxqguTqhAdxoBcT788AOd4h2LFi2S2bNnW5XmKZ3iPeglzZ07R374YbFO8Y733/+L1bJs9WRIczV+/vlnVQZPnXLvG6BXYRejBLphwwbZv3+/Pgsd6FLOnDlDn3kDImRt27ZVjhw5olNCx8GDB5VQvBj/ZQJRzpo1y/XuvB327t1j5X+LPgstxggUHyYt7aQRHwicOHFSjX+94sKFi54YhOyAMT/Gf2fPntUp7nP+/Dnred793tmB/CO0oAnfwhiBotmvWrWqsqiZQIUK5ZXhwCuio6OlRImSUqBAAZ0SOvAOeBe8k1cghqw1/tNnoQX5r1KlqqOuqFsY1cWtVau23HjjjSH/YWDRhSXPS2BFRZDbatWqhzT/eHZ8fLw0aXKj+h28JDExMeQVFPLftGkzNd1iAkYJFDX2888PlRo14kP2oaKjY6R9+/bSu/ejOsU72rRpo8z8iMgN07/X4JnlypWTzp27SOvWrXSqd/Tp87i0a9dOtaahABUSGokhQ4Z62nvIDuPmQbFIYfHixfLFF59Lauo+NQ70YiyACiE2tphqwZ988inb3a1gz4Ni7hMRuxG9GRZFzIN6AVpwVAy3336HVUl0leLFi+srV8eNedBDhw7J2LHvy7p161R582IeFO8YGRmpurUPPpgoLVu2lCJFiuirVydPLlQAGKTjGXv37pX09DTr3H2BFi5cSK0kwrs6ab3dWEmE/B84cMA69suZM94YaqKiIqVixUpSvnx52623GwIFly5dUpZUVFAwnrlNvnzXSbFi11vDi2pqRRHe2Q55VqC5CYbAZwh8pwJlCHxCwgQKlBCDoUAJMRgKlBCDoUAJMRgKlBCDoUAJMRgKlBCDoUAJMRgKlBCDoUAJMRgKlBCDoUAJMRgKlBCDoUAJMRgKlBCDoUAJMRjjBAp3Hzt37pABA56RunVrS7FiRSU6OtL1o3TpUpKQ0Eb5QoJfJLvYdY9hF/jgmTt3rnTv3lUqVaogMTFRft83mAeegWf16NFNFixY4IkfoKuB3x4uZNq2ba2+ib/3DfaBMoayNmjQQNm1a6cqg27ipMwYJVB4F09KWi0PPPCA/O1vH0tqaqpnhQWe3ZOSkqRPn8fkhReG2nZaHUyHZngmQk707/+E8rJ+4sQJTxym4Rl41syZM6Vfv77y8cd/dVRJBYszZ87IwIEDlBuZNWvWqG/iBShjKGt//etHkpj4oHJY5qZInXxTowSKyGZvvPGG7NixXaeEBhTQqVOn6LPsCWYLumTJEuXfCM6yQgW86qEFW758mU7xDuQdzw4lCHkxYsRbKgSkW+TaFjQ5OTkkQXv8MXHi3z1pvTKBe83Vq1fJ7t27dUro2Llzp/Uuqz3t6qLF+vTTifostKCbD6+KJmCMQCEGeEdzu/9vFxRSL6NsIQ7K8ePHPPODmx3o3iLCHGLFeAXynZKyT5+Flky3nyZgjEDR7NtxluwVdqNMBwt4NY+IiAyJR/krwTsgynT+/N5594cv4mLFYvVZ6ImJidH/F1qM6uIi5EOVKlX0WWi57bbbPA0/Ac/miGodFxenU0IHvOrXqlXL0+BR+K1vvbWdPgstiI+DsmgCRgm0VKlS0rfvExIVFaVTQkPt2nXkiSf66zNvQA+ibdu21pFgK+yAW0CUCQm3qvcIpgHMDv37PxlyYcCZdP/+/Y2oKIFRAkW3qkePB+Sll/4UkihfiE9y1113ydixYy2R1tap3lG5cmUZNGiwivKF8ABe5h/PKlGihPTs+YgMHDhIKlasqK94R506dWTcuHFyxx13qG/hJcg/ejDDhg1TsWlQFk3AuNAPMBZh/is1db+amzp69Ihcvuy+sSYyMkIJpEKFiirCl92xYLBjs8BIduzYMWVFTElJlvR098z9WcH4D8GDKlSooIRqJ/9uhH5A/pH3gwcPqO/vRVDfAgXyW7230lKpUiXrqGiVhShblWOejs2CAo+PBUuqF9Md+CAw1Nj5MFlxKzYL7odpDq+s2hAkxoFO8u9mbBbkG/n36tsjcLTT4NF5OjZL5o+Grg66G24feI5TcboJ3gUVhr93deMIpHJyE1QYXn57UyK7X4mxAiWEUKCEGA0FSojBUKCEGAwFSojBUKCEGAwFSojBUKCEGAwFSojBUKCEGAwFSojBUKCEGAwFSojBUKCEGAwFSojBGLthGxt24f4R3ta92LSLzcrwhYR9kU4ItkeFTLBRHZ7WvXLDiT2RyL+TfZFubtiG60vk3wvfvHhH+GKCLyi7njSAFxu2jRMohAnv5itXrpA9e/aoZ3nhnxYfp0yZMtKgQQNp3ryFbY9+wRYoCiS8myP8QGrqPlVIvSA6Olq5/LjhhiZSt25dW0J1Q6DI/4oVy2Xz5s3Kw74XISiQV4imRo0a0qLFTaoc2BFqoAJ14vJEIFC7x6FDh31WRlASHR1WwfRNmTLN7z2zHqdOnfFt2rTZ17t3b1/ZsmV91sf1ez+3DkuUviZNmvjGjfvQl5Fx2u87Xnn07PnINd/TEqhv8+b/+P33WY+0tAzftGnf+O68805fdHSM33u5eVgFxtexY0ff9Onf+tLTT/l9x6wH8oS8+btX5oHfBr+Rv39/5YFnjhnzvq9x48bqW/i7n1sH3rNcuXK+Pn0et/K1RZVFf++Y9UCZRtn2d7/sDkugSkv+7nnlYdQY9OzZMzJ+/HiZNGmSakW96NpmBbX32rVr5c9/fkN+/HGpTvUOtBrjx3+gQg+cPn1Kp3oHekjz58+Xjz6aoFpxr1m0aJG89dabsn79ek+6tllBWfvpp5+Uf6m///0T5enfBIwSKLy5ffXVl3LhwgWdEhrwoT7++GN95g3oxi9Z8oOsWrVKjb9CBca8K1euVMGTvK4gUTmFMnAUgM1j0qR/yZEjR3RKaDFGoCgMO3bsUGHwTADjIC+FgrHmvn37rFbM+5bzSk6ePCl79+5VPRqvwFgT424TgDgRm8cEjGpBvXIxaQcUGBg4vASVlNetlj/wDuhievk9YKgxIXBUJhcueB8f1R/GCBRiqFevnuNpDrdo0KChbUtuMIAVFQ6zvYyHcjUQJwbvEh3tXQAhfPf69Rvos9CCKSdYsk3AqBYU5u377rtfn4UOVBZ//OMz+swbYNZv1aqVVUjr65TQgcqpVavWnvcgnnrqac+f6Q+EfkBZNAGjBIoa+6WXXlKFA7W4l86EUTBQc2I+7NVXh9teVBHMLinmXx9/vK+KUeJ00jyn4Fl4JlqOvn37SrNmzfQV77jnnnvkhRdeVKEfvXakjbKGhRqIsIZ3iIqK1leCj5MyY2RsFkyxfPnlF7J06RI1YPdioQIqBETW6tGjh4rsZVccbqwkSkpKksmTv5YNGzZIRka6TnWX2Nhi0qRJE9V63HDDDTo1e9xYqIBx77x581T+EUQXVlW3gTjRYrZp01a6detuu/X0YqGCsUv9cgtuxWbJDbgh0NxEoAINi9gshBAKlBCjoUAJMRgKlBCDoUAJMRgKlBCDoUAJMRgKlBCDoUAJMRgKlBCDoUAJMRgKlBCDoUAJMRgKlBCDoUAJMRgKlBCDoUAJMRgjPSrA7QUcGG/cuFGOHoXLE/fdP0ZEFJFq1apLo0aNHHkWdMPlCVy8wC/r9u3bJD09Q6e6S2xsUaldu47UrFnTti8otzwqwHE5vj3uf+6cF7FZ8klcXCn17UuVKmXb3U2edHkCB85TpkyWsWPHyrFjRz0LAZDpNAwf6d13x0jlypX1lewJtkDh1f7dd0dbH/87ycjI8Mw3LQplbGysdOx4twwYMNCWXx43BIp7Dhw4QIXBgJ/c7H7XYAIXq3FxcfLMMwPk/vs7Kx9V18ILgRoVPOnEiTTfhAkf+SIiIjwPnJR5WAXVV716Dd/+/Qf9vuOVRzCDJ6WkpPqswuwrXLiw3/t4cRQpUsTXq1cvW/kPdvCkvXtTfFbFqL6Bv3u5feBdLWH6Jk781HfyZLrfd8x65LngSenp6fLmm294FhPUH2ix9uzZbbV47+gU75g9e5YsWDA/pLFp4FF/4cKFMnfu1VtFt0DQKoS/8NKjfVZQ5hA06c0331Rl0QSMEijGHfv379dnoWXGjBmeVhIoGNu2bZPDhw/rlNCBIFaIbuZlRYFx96xZs/RZaNm9e5fs3LlDn4UWYwQKMaSlndRnoefkyRO2YoUES8R41rlzZ0PWc8gKWjAEcfIieG4mqAy88IFrFxgp3foWTu5rjEBhTKhcuYpY4y+dElqqVq3q6bvAKAFLogn5h4d5GEzsGEqCBZ6FCN8mgPxXqlRZlclQY1QXNz4+Xm65paU+Cx2w5j7yyP/qs+wJ1kfEM2+8san6DUJZMPBsTLU0bdrM80BWPXs+EvLgWch/69atVTh8EzBKoIjwNWDAAKug3uhpXJasID5MYmKidO3aTad4R4sWLaxnP6RaErtzccEEz6xSpao89NDD0rx5c53qHd2795AHH0xUMVJCAaZamjVrrqZa3HwHJxWwcfOgGPesWrVSZs+eLdu3b1exSbyw6hUqVFjN/UEknTt3sR2fI9jzoMeOHVOW3MWLF0tKSooal3pBZGSUVKtWTRISElQAoeLFi+srV8eNeVDMA0+dOkVF+cY48NIl92OGojHAHHCdOnXlrrvuUr0HO0ONPLlQAcCih2cgiBKsmz6f+wItUKCgFCsWKxUrVlLdTbu4sZIIkb1hzYVYL170wpL62yINjDtRMdmNi+qGQAEMRvv3p1plIN0qC+4vVLnuunyqxSxbtqyKm2K39xKoQJ3EZmHwpBzC4EkMnuSmQI0agxJC/j8UKCEGQ4ESYjAUKCEGQ4ESYjAUKCEGQ4ESYjAUKCEGQ4ESYjCOBepkoW9W3NpbR0ioCLRMO9GQI4HixoHsV8RaWqwvJSScQJkOZJ049pvaFaljgWLXg1OQkdOnT+mz8CLQHgXJ/WBteiANT1RUtDsCBUWLxuj/sw9cWZjga4eQYHLw4EG128opv2nIlRY0n1SoUEGf2Qf+XbG3E9vIwg2OrfMmaDl/26/s3LF4+fLlbW9pcyRQbGwNZMsUnE8nJycrb+mEhAMQJ1yEBtLoVK9ewz2B1qxZS585Y9++FFm+fHnIfJ66BcegeQ+U4RUrlqsyHQhOwms4FmjDhg0DcuwE7wgLF85XPlcJyc2kpCQrtzSB2FXguaJhw0buCBStRenSpVUN4BSM1VatWqW8p5vk/5QQJ8AoNHPmTFm9erVOcUa9evWUaxnXrLjw3XLzzbfoM2fACdTkyZNl5coVtpxCE2IS8JW0dOlS5dQM/qICoWXLVo48BgYkUHh9C9Qt4Zo1SfLRRxNU9CqvIpcRklNgtd2wYb1VdsfL+vXrdaoz4IOodes27goU4084DmvUqLFOcQasXvPnz5fRo0dKUtLqgCZ6CfES9PaWL18mo0aNlO+//z5gQyf8PdeqVdO210TgWKAArhnvvvtuR+4ps4KuwnfffSfDhg2TSZMmqRUZhJjIiRMn5NNPJ8rw4a+qhiXQBgXL+zp27CilS9vzt5xJQALFUqUWLW6S+vXr6xTnIKMwVY8Y8ZY8/fTTql+PH4MQE4C95PPPJ8lTTz2pWk4YhXIyJEOPs3nzFo7j3Tjyi5sVtHoTJkyQd94ZkWOrLJr8cuXKWUd5ady4sZrKgZdzWIyx9jcUYRDsMnToEBURPLsVRQkJt8rLLw+zHbU7t4CJ+tdff83q9i3SKb8H1souXbrK22+P0CnmgS7rmTOn1VTg7t17ZOPGDbJ58yY1JYiplJyugIMoX3zxJenTp49q3JwQsEBRIGHoeeWVl1XTHwzwMSMiIlSGsGsG410sLzR5McDRo0ev2UWHUaBEiRLKe304cfnyJTl+/LhVuM/oFP/AOIKpBVNBWcauFIw1EXoEDQ7+DNYyToSTGD78daldu7bjshywQAFqFnhVRy3KxfCE/J6KFSvKsGGvSLdu3W0vTshKjvqOeGDnzp3lvvvuNyKuJSEmgZ4guvf33ntfQOIEOR7cIVxf3759pW3bto7Mx4SEMxie3Xbbbda483E1bAuUoFhfatSIlwEDBioDT6A1BSHhAhoqhDAcOHBwjqOGB8082qpVayXSunXrGm11JcRN0EA1aNBABg9+1hJpU50aOEFVUqdOf5Dnnx+iVkyYbHklxA1Q5rE+YOjQF6V9+/Y6NWfkyIp7NZYt+1HGjHlPFixYwKV8JE8AI2n79h1k0KDBqoEKFq4IFOzatVMtZPjyyy8kPT1dpxISfpQsWVISEx+Sxx7rI1WrVtWpwcE1gYIjR47IN9/8W7744nNZt25dWPokInkXGIOwfO+BBx60hnedpHjx4vpK8HBVoACrMjZt2iTffTdbpk2bpsKFB2uFBiGhAEbQ+Piaag1Ahw53KsMoFsO7gesCBVjrmJaWprq98+bNkylTpiihhpt/IhLeoMWMj4+Xrl27qT3R+P+YmBhXZy08EWgmmYuSsVNgyZKl8vXXX6k9odh+RoipoHVs2bKldO/eQ2666WaJiyspERGRnkwneirQTNDFxXgUwsRic2yGXbZsmXLLmZq6TwmY3hZIKMAeZ+x3rlSpstpcjfl9TJ1gfIlrXq+WC4lArwWmZrA3FH5fsFOExiXiJlhcULRorLLGQogmLVk1UqCEkN/gmjxCDIYCJcRgKFBCDIYCJcRgKFBCDIYCJcRgKFBCDIYCJcRYRP4PETQZuCVAc7oAAAAASUVORK5CYII=;" vertex="1" parent="1">
          <mxGeometry x="500" y="350" width="68.52" height="70" as="geometry" />
        </mxCell>
        <mxCell id="lceH0wNusuQjqGATGVue-19" style="edgeStyle=orthogonalEdgeStyle;rounded=0;orthogonalLoop=1;jettySize=auto;html=1;entryX=-0.02;entryY=0.512;entryDx=0;entryDy=0;entryPerimeter=0;" edge="1" parent="1" source="lceH0wNusuQjqGATGVue-15" target="lceH0wNusuQjqGATGVue-12">
          <mxGeometry relative="1" as="geometry" />
        </mxCell>
        <mxCell id="lceH0wNusuQjqGATGVue-20" value="Calculated&#xa;Calibration&#xa;Parameters " style="shape=image;verticalLabelPosition=bottom;labelBackgroundColor=default;verticalAlign=top;aspect=fixed;imageAspect=0;image=data:image/png,iVBORw0KGgoAAAANSUhEUgAAAOgAAADtCAYAAAC1ZDnLAAAAAXNSR0IArs4c6QAAAARnQU1BAACxjwv8YQUAAAAJcEhZcwAADsMAAA7DAcdvqGQAAB3KSURBVHhe7Z0HeBVV2sdf6WkEgdA7hPrRRIpKi6igKKtSNYofKCKoK0UFdUWxrCKgrKDgui7uutgoK1KkiyA1dJZeEgIIUpPQi95v/seTZ/PhJczc3Jl7cvP/Pc+IcwZm5tw5/1Pec877Xnf69FmfEEKMJJ/+kxBiIBQoIQZDgRJiMBQoIQZDgRJiMBQoIQZDgRJiMBQoIQZDgRJiMBQoIQZDgRJiMBQoIQZDgRJiMMbtZrl8+bIcOXJE0tPT5cyZM3Lx4gXx+bjhhrjHddddJ4UKFZaoqCiJjY2VUqVKSYECBfTV0BISgUJwEOLFixfl2LFjsnLlClmyZIls2rRRdu3aLadPn9J/kxDviY6OkZo146VBgwbSunUbuemmm6V48eKWiAsp4ULQXuGpQH/55RdLfKdl//79liB/kG+++UbWrl0jFy5c0H+DEPMoXLiwNG3aTO69915p1aq1VKhQwRJxtOTPn1//DffwRKC//vqr6rJu3bpFpk+fLtOmTZXDhw/rq4TkDtByli1bVjp37iKdOnWSOnXqStGiRSVfPvdMOa4L9Ny5c7J582aZM+c7mTx5sqSkJHNMSXI1EGq1atWlW7du0qHDnVKvXj0pUqSIvhpcXBXooUOHZObMGfLll1/ImjVrVBeXkHAB49FmzZpLjx4PyD333CNxcXH6SvBwTaDr16+XiRM/kalTp6ruLSHhCgxIXbp0lV69ekv9+vV1anBwRaDz5s2TMWPek2XLfmSrSfIEaE1h8R08eLC0adNWp+acoAoUY0sYgN57713ZsGGDTiUk79C0aVNLpM/J3XffrVNyRlDNT99+O11GjnxHNm3apFMIyVusW7dORox4S+bOnatTckbQBLp06RLVrd22bZuaViEkL4IhHWYtRo8eJUlJSTo1cIIi0N27dylxwjDEMSfJ62CVXFLSamuoN1pSU1N1amDkWKCnTmXIhAkTZPHixerFCCEily5dkoULF8onn/xNrQUIlBwJFK3llClT5d//nsbleoRcATZ7TJkyWWbM+DbgYV/AVlxYbDdu3CivvDLMqikW6NScgRUaERER6sDKjIIFC1pp+TxdnOyUo0ePql5EdmCXRIkSJaRAgYI6JTy4fPmSHD9+XBXE7IiJKerKJH6wQFn2+X5Vrd758+fl7Nmz6s9grXjDIoZXXx0utWrV1in2CVigGRkZ8sEH42TUqJE5bj0xh4Q1juXLV5CGDRuqo3r16lKmTBmJjIxyda1jThk6dIiqJbP7mAkJt8rLLw+TypUr65TwYN++ffL666/J998v0im/B5UrJvHffnuETjEPtG5nzpyWn3/+Wfbs2aOmCNH4HDx4QK2Gy6ldJSoqWv70pz9J796PqsraCQEJFBlatWqlDB48KMdTKhUrVlTLpVDLtG2bICVLltRXcgf9+/eTzz77Z7YC7dChg4wcOUqqVq2mU8KD5OS98txzz8qcOXN0yu+BQB9+uKd8+OF4nZI7QM9o0aKFVvd0hqxZkyQHDhzQVwIDW9beeWekNGrUyFGPMKCm6dSpU/LDDz/Ili1bdIpz0H3FSw8Z8oKMHTtO1bK5TZwkfEGXvHv3HjJu3AdWJTREmjdvrnp6gbJ+/TpZsWK51X3OfjhwJQEJ9NChn2TWrJkBN/3YX3fnnXfJa6+9JomJiWrLDiEmUqxYMasH8LC88sqrcvvtt6uGJRAwpp09e7bqRjvBsUDhBQEtJxYkBAJqoTvuuMPqHj+rNsEGmmFCvAKeFNDbe/bZ5yQhISFgm8jatWutMe5eRw2b4yfBYrdo0SJVIwQCRNmvX3/lTiInXQZCvAQNSaNGjaVv335qHBkIsPZjxZ2Tbq5jgcJlydKlS/WZM+AqAnvnYBRiy0lyGxiatWrVSrp27RbwtBF2eJ0+7ZJAYb3dty9FUlP36RT7oFtw8823qFX+bu0+J8RtIiMjpVOnPyijUSBgne7Jkydtz7E6Eij6zuhHB7KkD61nu3btlEtDQnIzmBrEns9AyjIWQcB7pd1xqGOB7tmzW585Az5c4BHN5FVBhNgBvcFbbmkZ8Lw2FkPYXfrnuIsLK5RT0HevXr2aVKpUSaeED8FaDkZyF3Xq1FEtaSAW3eTkZHdaUKxX/Omnn/SZfTDPWbt2HX0WXrBHkDeBkTM+Pl75x3UK/EK70oKitTh/3vnWGQyssa6WkHCibNlyqmw7JS3tpPVfF4xEIJD5z3z58ktEhPOM5AbYxc27XH99MTV8cwq8XLpixcVNsSUnENgVJOFGkSIRqvFxCiy5rgg0J7ClIeFGoI2O3fEn8EyghBDnUKCEGAwFSojBUKCEGAwFSojBUKCEGAwFSojBUKCEGAwFSojBUKCEGAwFSojBOPIsD69kderUlrS0NJ1ijypVqsjw4a9Ju3a36ZTwAd71v/76q2zXGiPfyD9+h3AiJSXlmrF5sF4VDqBHjRqtU8IH5Bv5x+/ghOuvv162bt2mYtZcC08EitgUcLMZjntC4TH8Wh8I+Ua8GcSZCSfgPhIxTA4fPqxT/IOKqXHjG/RZ+IB8I/QJ4ro4Ac6wt23bbo5ACSH/xYlAOQYlxGAoUEIMhgIlxGAoUEIMhgIlxGAoUEIMhgIlxGC4UCGHcKECFyrk+oUKXOrHpX5c6vdfjFvqhyhQI0eOkg4dOuiU8KFfvyfkX//6LFuBIt/If6DRsEwlOXmvPPfcszJnzhyd8nsg0Icf7ikffjhep4QPyDfyj9/BCVxJREiYQIESYjAUKCEGQ4ESYjAUKCEGQ4ESYjAUKCEGQ4ESYjAUKCEGQ4ESYjAUKCEGQ4ESYjAUKCEGQ4ESYjAUKCEGQ4ESYjAUKCEGQ4ESYjAUKCEGQ4ESYjAUKCEGQ4ESYjAUKCEGY6Rf3PPnz8uuXbtky5b/qGf98ssv+op7FC5cRMqWLSstWrSQEiVK6NRr079/P/nss38G1S9uRkaG8li/d2+ynDt3Ntt7BwP4roXX+2rVqkqjRo2laNFr+2sFbvnFPXr0qKxatUoOHz4kFy5c0KnukT9/fuWrtl69/5GaNWtaZaGwvpI9gfrFzdWOq9PT0+Uf//hUpk+frj7QuXPn5Ndff9VX3aNgwYJWwYyVWrVqyuDBz0mTJk30lewJtkC3b98mn3zyiSxb9qMcP35cLl686IlACxUqJCVLlpSWLVvJo48+ahXUWvrq1XFDoBDmmDHvyo4dO62KKl0uX76sr7hHvnz5JCIiQsqUKStdunSRxMSHbFVSXghUIFC7x6FDh31WTYPS4uiwCqZvypRpfu+Z9Th27IRv9Oh3fXFxcX7v48Vh1aa+hg0b+rZs2eb3Ha88evZ8xGcVQr/3yjwsgfo2b/6P33+f9di6dbuvV69evujoGL/38eKwCo3vscf6+Hbu3O33HbMeyBPy5u8+mQd+G/xG/v79lceGDRt99erVU9/A3728OEqXLu0bO/YD3/HjJ/2+Y9YDZRpl2999sjugIWjJ3z2vPIwag6Jl/stfxqguTqhAdxoBcT788AOd4h2LFi2S2bNnW5XmKZ3iPeglzZ07R374YbFO8Y733/+L1bJs9WRIczV+/vlnVQZPnXLvG6BXYRejBLphwwbZv3+/Pgsd6FLOnDlDn3kDImRt27ZVjhw5olNCx8GDB5VQvBj/ZQJRzpo1y/XuvB327t1j5X+LPgstxggUHyYt7aQRHwicOHFSjX+94sKFi54YhOyAMT/Gf2fPntUp7nP+/Dnred793tmB/CO0oAnfwhiBotmvWrWqsqiZQIUK5ZXhwCuio6OlRImSUqBAAZ0SOvAOeBe8k1cghqw1/tNnoQX5r1KlqqOuqFsY1cWtVau23HjjjSH/YWDRhSXPS2BFRZDbatWqhzT/eHZ8fLw0aXKj+h28JDExMeQVFPLftGkzNd1iAkYJFDX2888PlRo14kP2oaKjY6R9+/bSu/ejOsU72rRpo8z8iMgN07/X4JnlypWTzp27SOvWrXSqd/Tp87i0a9dOtaahABUSGokhQ4Z62nvIDuPmQbFIYfHixfLFF59Lauo+NQ70YiyACiE2tphqwZ988inb3a1gz4Ni7hMRuxG9GRZFzIN6AVpwVAy3336HVUl0leLFi+srV8eNedBDhw7J2LHvy7p161R582IeFO8YGRmpurUPPpgoLVu2lCJFiuirVydPLlQAGKTjGXv37pX09DTr3H2BFi5cSK0kwrs6ab3dWEmE/B84cMA69suZM94YaqKiIqVixUpSvnx52623GwIFly5dUpZUVFAwnrlNvnzXSbFi11vDi2pqRRHe2Q55VqC5CYbAZwh8pwJlCHxCwgQKlBCDoUAJMRgKlBCDoUAJMRgKlBCDoUAJMRgKlBCDoUAJMRgKlBCDoUAJMRgKlBCDoUAJMRgKlBCDoUAJMRgKlBCDoUAJMRjjBAp3Hzt37pABA56RunVrS7FiRSU6OtL1o3TpUpKQ0Eb5QoJfJLvYdY9hF/jgmTt3rnTv3lUqVaogMTFRft83mAeegWf16NFNFixY4IkfoKuB3x4uZNq2ba2+ib/3DfaBMoayNmjQQNm1a6cqg27ipMwYJVB4F09KWi0PPPCA/O1vH0tqaqpnhQWe3ZOSkqRPn8fkhReG2nZaHUyHZngmQk707/+E8rJ+4sQJTxym4Rl41syZM6Vfv77y8cd/dVRJBYszZ87IwIEDlBuZNWvWqG/iBShjKGt//etHkpj4oHJY5qZInXxTowSKyGZvvPGG7NixXaeEBhTQqVOn6LPsCWYLumTJEuXfCM6yQgW86qEFW758mU7xDuQdzw4lCHkxYsRbKgSkW+TaFjQ5OTkkQXv8MXHi3z1pvTKBe83Vq1fJ7t27dUro2Llzp/Uuqz3t6qLF+vTTifostKCbD6+KJmCMQCEGeEdzu/9vFxRSL6NsIQ7K8ePHPPODmx3o3iLCHGLFeAXynZKyT5+Flky3nyZgjEDR7NtxluwVdqNMBwt4NY+IiAyJR/krwTsgynT+/N5594cv4mLFYvVZ6ImJidH/F1qM6uIi5EOVKlX0WWi57bbbPA0/Ac/miGodFxenU0IHvOrXqlXL0+BR+K1vvbWdPgstiI+DsmgCRgm0VKlS0rfvExIVFaVTQkPt2nXkiSf66zNvQA+ibdu21pFgK+yAW0CUCQm3qvcIpgHMDv37PxlyYcCZdP/+/Y2oKIFRAkW3qkePB+Sll/4UkihfiE9y1113ydixYy2R1tap3lG5cmUZNGiwivKF8ABe5h/PKlGihPTs+YgMHDhIKlasqK94R506dWTcuHFyxx13qG/hJcg/ejDDhg1TsWlQFk3AuNAPMBZh/is1db+amzp69Ihcvuy+sSYyMkIJpEKFiirCl92xYLBjs8BIduzYMWVFTElJlvR098z9WcH4D8GDKlSooIRqJ/9uhH5A/pH3gwcPqO/vRVDfAgXyW7230lKpUiXrqGiVhShblWOejs2CAo+PBUuqF9Md+CAw1Nj5MFlxKzYL7odpDq+s2hAkxoFO8u9mbBbkG/n36tsjcLTT4NF5OjZL5o+Grg66G24feI5TcboJ3gUVhr93deMIpHJyE1QYXn57UyK7X4mxAiWEUKCEGA0FSojBUKCEGAwFSojBUKCEGAwFSojBUKCEGAwFSojBUKCEGAwFSojBUKCEGAwFSojBUKCEGAwFSojBGLthGxt24f4R3ta92LSLzcrwhYR9kU4ItkeFTLBRHZ7WvXLDiT2RyL+TfZFubtiG60vk3wvfvHhH+GKCLyi7njSAFxu2jRMohAnv5itXrpA9e/aoZ3nhnxYfp0yZMtKgQQNp3ryFbY9+wRYoCiS8myP8QGrqPlVIvSA6Olq5/LjhhiZSt25dW0J1Q6DI/4oVy2Xz5s3Kw74XISiQV4imRo0a0qLFTaoc2BFqoAJ14vJEIFC7x6FDh31WRlASHR1WwfRNmTLN7z2zHqdOnfFt2rTZ17t3b1/ZsmV91sf1ez+3DkuUviZNmvjGjfvQl5Fx2u87Xnn07PnINd/TEqhv8+b/+P33WY+0tAzftGnf+O68805fdHSM33u5eVgFxtexY0ff9Onf+tLTT/l9x6wH8oS8+btX5oHfBr+Rv39/5YFnjhnzvq9x48bqW/i7n1sH3rNcuXK+Pn0et/K1RZVFf++Y9UCZRtn2d7/sDkugSkv+7nnlYdQY9OzZMzJ+/HiZNGmSakW96NpmBbX32rVr5c9/fkN+/HGpTvUOtBrjx3+gQg+cPn1Kp3oHekjz58+Xjz6aoFpxr1m0aJG89dabsn79ek+6tllBWfvpp5+Uf6m///0T5enfBIwSKLy5ffXVl3LhwgWdEhrwoT7++GN95g3oxi9Z8oOsWrVKjb9CBca8K1euVMGTvK4gUTmFMnAUgM1j0qR/yZEjR3RKaDFGoCgMO3bsUGHwTADjIC+FgrHmvn37rFbM+5bzSk6ePCl79+5VPRqvwFgT424TgDgRm8cEjGpBvXIxaQcUGBg4vASVlNetlj/wDuhievk9YKgxIXBUJhcueB8f1R/GCBRiqFevnuNpDrdo0KChbUtuMIAVFQ6zvYyHcjUQJwbvEh3tXQAhfPf69Rvos9CCKSdYsk3AqBYU5u377rtfn4UOVBZ//OMz+swbYNZv1aqVVUjr65TQgcqpVavWnvcgnnrqac+f6Q+EfkBZNAGjBIoa+6WXXlKFA7W4l86EUTBQc2I+7NVXh9teVBHMLinmXx9/vK+KUeJ00jyn4Fl4JlqOvn37SrNmzfQV77jnnnvkhRdeVKEfvXakjbKGhRqIsIZ3iIqK1leCj5MyY2RsFkyxfPnlF7J06RI1YPdioQIqBETW6tGjh4rsZVccbqwkSkpKksmTv5YNGzZIRka6TnWX2Nhi0qRJE9V63HDDDTo1e9xYqIBx77x581T+EUQXVlW3gTjRYrZp01a6detuu/X0YqGCsUv9cgtuxWbJDbgh0NxEoAINi9gshBAKlBCjoUAJMRgKlBCDoUAJMRgKlBCDoUAJMRgKlBCDoUAJMRgKlBCDoUAJMRgKlBCDoUAJMRgKlBCDoUAJMRgKlBCDoUAJMRgjPSrA7QUcGG/cuFGOHoXLE/fdP0ZEFJFq1apLo0aNHHkWdMPlCVy8wC/r9u3bJD09Q6e6S2xsUaldu47UrFnTti8otzwqwHE5vj3uf+6cF7FZ8klcXCn17UuVKmXb3U2edHkCB85TpkyWsWPHyrFjRz0LAZDpNAwf6d13x0jlypX1lewJtkDh1f7dd0dbH/87ycjI8Mw3LQplbGysdOx4twwYMNCWXx43BIp7Dhw4QIXBgJ/c7H7XYAIXq3FxcfLMMwPk/vs7Kx9V18ILgRoVPOnEiTTfhAkf+SIiIjwPnJR5WAXVV716Dd/+/Qf9vuOVRzCDJ6WkpPqswuwrXLiw3/t4cRQpUsTXq1cvW/kPdvCkvXtTfFbFqL6Bv3u5feBdLWH6Jk781HfyZLrfd8x65LngSenp6fLmm294FhPUH2ix9uzZbbV47+gU75g9e5YsWDA/pLFp4FF/4cKFMnfu1VtFt0DQKoS/8NKjfVZQ5hA06c0331Rl0QSMEijGHfv379dnoWXGjBmeVhIoGNu2bZPDhw/rlNCBIFaIbuZlRYFx96xZs/RZaNm9e5fs3LlDn4UWYwQKMaSlndRnoefkyRO2YoUES8R41rlzZ0PWc8gKWjAEcfIieG4mqAy88IFrFxgp3foWTu5rjEBhTKhcuYpY4y+dElqqVq3q6bvAKAFLogn5h4d5GEzsGEqCBZ6FCN8mgPxXqlRZlclQY1QXNz4+Xm65paU+Cx2w5j7yyP/qs+wJ1kfEM2+8san6DUJZMPBsTLU0bdrM80BWPXs+EvLgWch/69atVTh8EzBKoIjwNWDAAKug3uhpXJasID5MYmKidO3aTad4R4sWLaxnP6RaErtzccEEz6xSpao89NDD0rx5c53qHd2795AHH0xUMVJCAaZamjVrrqZa3HwHJxWwcfOgGPesWrVSZs+eLdu3b1exSbyw6hUqVFjN/UEknTt3sR2fI9jzoMeOHVOW3MWLF0tKSooal3pBZGSUVKtWTRISElQAoeLFi+srV8eNeVDMA0+dOkVF+cY48NIl92OGojHAHHCdOnXlrrvuUr0HO0ONPLlQAcCih2cgiBKsmz6f+wItUKCgFCsWKxUrVlLdTbu4sZIIkb1hzYVYL170wpL62yINjDtRMdmNi+qGQAEMRvv3p1plIN0qC+4vVLnuunyqxSxbtqyKm2K39xKoQJ3EZmHwpBzC4EkMnuSmQI0agxJC/j8UKCEGQ4ESYjAUKCEGQ4ESYjAUKCEGQ4ESYjAUKCEGQ4ESYjCOBepkoW9W3NpbR0ioCLRMO9GQI4HixoHsV8RaWqwvJSScQJkOZJ049pvaFaljgWLXg1OQkdOnT+mz8CLQHgXJ/WBteiANT1RUtDsCBUWLxuj/sw9cWZjga4eQYHLw4EG128opv2nIlRY0n1SoUEGf2Qf+XbG3E9vIwg2OrfMmaDl/26/s3LF4+fLlbW9pcyRQbGwNZMsUnE8nJycrb+mEhAMQJ1yEBtLoVK9ewz2B1qxZS585Y9++FFm+fHnIfJ66BcegeQ+U4RUrlqsyHQhOwms4FmjDhg0DcuwE7wgLF85XPlcJyc2kpCQrtzSB2FXguaJhw0buCBStRenSpVUN4BSM1VatWqW8p5vk/5QQJ8AoNHPmTFm9erVOcUa9evWUaxnXrLjw3XLzzbfoM2fACdTkyZNl5coVtpxCE2IS8JW0dOlS5dQM/qICoWXLVo48BgYkUHh9C9Qt4Zo1SfLRRxNU9CqvIpcRklNgtd2wYb1VdsfL+vXrdaoz4IOodes27goU4084DmvUqLFOcQasXvPnz5fRo0dKUtLqgCZ6CfES9PaWL18mo0aNlO+//z5gQyf8PdeqVdO210TgWKAArhnvvvtuR+4ps4KuwnfffSfDhg2TSZMmqRUZhJjIiRMn5NNPJ8rw4a+qhiXQBgXL+zp27CilS9vzt5xJQALFUqUWLW6S+vXr6xTnIKMwVY8Y8ZY8/fTTql+PH4MQE4C95PPPJ8lTTz2pWk4YhXIyJEOPs3nzFo7j3Tjyi5sVtHoTJkyQd94ZkWOrLJr8cuXKWUd5ady4sZrKgZdzWIyx9jcUYRDsMnToEBURPLsVRQkJt8rLLw+zHbU7t4CJ+tdff83q9i3SKb8H1souXbrK22+P0CnmgS7rmTOn1VTg7t17ZOPGDbJ58yY1JYiplJyugIMoX3zxJenTp49q3JwQsEBRIGHoeeWVl1XTHwzwMSMiIlSGsGsG410sLzR5McDRo0ev2UWHUaBEiRLKe304cfnyJTl+/LhVuM/oFP/AOIKpBVNBWcauFIw1EXoEDQ7+DNYyToSTGD78daldu7bjshywQAFqFnhVRy3KxfCE/J6KFSvKsGGvSLdu3W0vTshKjvqOeGDnzp3lvvvuNyKuJSEmgZ4guvf33ntfQOIEOR7cIVxf3759pW3bto7Mx4SEMxie3Xbbbda483E1bAuUoFhfatSIlwEDBioDT6A1BSHhAhoqhDAcOHBwjqOGB8082qpVayXSunXrGm11JcRN0EA1aNBABg9+1hJpU50aOEFVUqdOf5Dnnx+iVkyYbHklxA1Q5rE+YOjQF6V9+/Y6NWfkyIp7NZYt+1HGjHlPFixYwKV8JE8AI2n79h1k0KDBqoEKFq4IFOzatVMtZPjyyy8kPT1dpxISfpQsWVISEx+Sxx7rI1WrVtWpwcE1gYIjR47IN9/8W7744nNZt25dWPokInkXGIOwfO+BBx60hnedpHjx4vpK8HBVoACrMjZt2iTffTdbpk2bpsKFB2uFBiGhAEbQ+Piaag1Ahw53KsMoFsO7gesCBVjrmJaWprq98+bNkylTpiihhpt/IhLeoMWMj4+Xrl27qT3R+P+YmBhXZy08EWgmmYuSsVNgyZKl8vXXX6k9odh+RoipoHVs2bKldO/eQ2666WaJiyspERGRnkwneirQTNDFxXgUwsRic2yGXbZsmXLLmZq6TwmY3hZIKMAeZ+x3rlSpstpcjfl9TJ1gfIlrXq+WC4lArwWmZrA3FH5fsFOExiXiJlhcULRorLLGQogmLVk1UqCEkN/gmjxCDIYCJcRgKFBCDIYCJcRgKFBCDIYCJcRgKFBCDIYCJcRYRP4PETQZuCVAc7oAAAAASUVORK5CYII=;align=left;" vertex="1" parent="1">
          <mxGeometry x="700" y="349" width="68.52" height="70" as="geometry" />
        </mxCell>
      </root>
    </mxGraphModel>
  </diagram>
</mxfile>
